<svg width="93" height="67" viewBox="0 0 93 67" fill="none" xmlns="http://www.w3.org/2000/svg">
<g id="Group 15">
<path id="4" d="M48.784 36.9978V36.8178H44.104V18.3498H43.924L31.36 36.8178V36.9978H41.008V43.3698H37.408V43.5498H47.74V43.3698H44.104V36.9978H48.784ZM31.576 36.8178L41.008 22.9578V36.8178H31.576Z" fill="#1C163C"/>
<path id="2" d="M39.872 28.628C39.72 32.352 39.112 32.922 34.552 32.922H26.572C33.298 26.576 39.454 22.168 39.454 16.354C39.454 10.692 34.818 9.058 31.208 9.058C27.294 9.058 24.254 11.794 24.596 15.898L24.9 15.86C24.596 11.642 27.408 9.248 31.208 9.248C32.5 9.248 35.92 9.21 35.92 15.822C35.92 22.624 33.07 26.652 26.306 32.922L23 35.848V36H40.024V28.628H39.872Z" fill="#1C163C"/>
<path id="h" d="M60.984 36.815V26.048C60.984 20.942 58.505 19.536 55.619 19.536C51.919 19.536 50.365 23.051 49.884 25.9V11.1H43.89V11.285H46.702V36.815H43.89V37H52.733V36.815H49.884V27.861C49.884 25.012 51.401 19.98 54.842 19.98C57.728 19.98 57.802 23.68 57.802 25.53V36.815H54.953V37H63.796V36.815H60.984Z" fill="#1C163C"/>
<rect id="barre_verticale4" width="32.5" height="0.4" transform="matrix(-1 8.74228e-08 8.74228e-08 1 63.8 36.7998)" fill="#1C163C"/>
<path id="barre_diagonale4" d="M43.4978 18.9984L31.3024 36.8004L31.4934 36.9955L43.9999 19L43.4978 18.9984Z" fill="#1C163C"/>
<path id="Fstvl" d="M16.0881 58.577H12.2121V64H10.2911V52.814H17.3631V53.154H12.2121V58.237H16.0881V58.577ZM27.8073 64.102C28.612 64.102 29.309 63.9603 29.8983 63.677C30.499 63.3823 30.958 62.9857 31.2753 62.487C31.604 61.9883 31.7683 61.433 31.7683 60.821C31.7683 60.0957 31.502 59.4893 30.9693 59.002C30.448 58.5147 29.6376 58.0217 28.5383 57.523L28.0283 57.285C27.3143 56.9563 26.776 56.6957 26.4133 56.503C26.062 56.3103 25.7786 56.0893 25.5633 55.84C25.3593 55.5793 25.2573 55.2733 25.2573 54.922C25.2573 54.31 25.484 53.8453 25.9373 53.528C26.3906 53.2107 27.014 53.052 27.8073 53.052C28.4873 53.052 29.1503 53.222 29.7963 53.562C30.4423 53.8907 30.907 54.3497 31.1903 54.939L31.4113 54.667C31.1166 54.0663 30.6293 53.5903 29.9493 53.239C29.2693 52.8877 28.544 52.712 27.7733 52.712C27.0933 52.712 26.4643 52.8367 25.8863 53.086C25.3083 53.324 24.8436 53.681 24.4923 54.157C24.1523 54.6217 23.9823 55.1827 23.9823 55.84C23.9823 56.3613 24.107 56.809 24.3563 57.183C24.617 57.5457 24.9853 57.8687 25.4613 58.152C25.9486 58.424 26.6173 58.7413 27.4673 59.104C28.442 59.512 29.156 59.92 29.6093 60.328C30.074 60.7247 30.3063 61.178 30.3063 61.688C30.3063 62.3453 30.0796 62.8553 29.6263 63.218C29.1843 63.5807 28.578 63.762 27.8073 63.762C27.0933 63.762 26.3906 63.609 25.6993 63.303C25.008 62.9857 24.5093 62.5323 24.2033 61.943L23.9993 62.215C24.328 62.827 24.855 63.2973 25.5803 63.626C26.3056 63.9433 27.048 64.102 27.8073 64.102ZM46.8112 52.814V53.154H43.4622V64H41.5412V53.154H38.1922V52.814H46.8112ZM58.4471 64.102L53.5171 52.814H55.6251L59.3481 61.348L63.2581 52.814H63.6321L58.4471 64.102ZM72.6388 63.66H77.7898V64H70.7178V52.814H72.6388V63.66Z" fill="#1C163C"/>
</g>
</svg>
